<?xml version="1.0" standalone="no"?>
<!DOCTYPE svg PUBLIC "-//W3C//DTD SVG 20010904//EN"
 "http://www.w3.org/TR/2001/REC-SVG-20010904/DTD/svg10.dtd">
<svg version="1.0" xmlns="http://www.w3.org/2000/svg"
 width="666.000000pt" height="375.000000pt" viewBox="0 0 666.000000 375.000000"
 preserveAspectRatio="xMidYMid meet">
<metadata>
Created by potrace 1.16, written by Peter Selinger 2001-2019
</metadata>
<g transform="translate(0.000000,375.000000) scale(0.100000,-0.100000)"
fill="#000000" stroke="none">
<path d="M3809 2490 c-6 -16 -17 -30 -25 -30 -16 0 -19 -17 -4 -22 7 -2 5 -21
-4 -53 -18 -63 -26 -129 -17 -143 3 -5 24 -15 47 -21 63 -17 117 -62 149 -124
16 -31 27 -58 24 -62 -3 -3 -26 2 -50 11 -98 35 -353 94 -475 110 -87 11 -172
15 -259 12 -130 -4 -130 -4 -225 -50 -52 -24 -144 -75 -204 -111 l-108 -67
-289 0 -289 0 -38 25 c-43 28 -139 55 -197 55 -50 0 -143 -24 -193 -49 -20
-10 -57 -37 -82 -59 -39 -34 -55 -41 -120 -52 -118 -19 -358 -79 -415 -105
-57 -25 -95 -65 -95 -101 0 -36 36 -54 108 -54 l64 0 -31 -37 c-91 -113 -91
-113 -161 -119 -52 -5 -75 -14 -114 -41 -27 -20 -69 -46 -94 -59 l-45 -24 54
-1 c32 -1 42 -4 24 -6 -16 -2 -36 -12 -43 -21 -19 -25 -15 -86 9 -116 45 -58
54 -59 434 -66 193 -3 356 -9 363 -14 22 -13 2808 -16 3012 -3 96 7 297 12
445 12 298 1 367 6 500 40 106 27 224 45 301 45 60 0 107 19 124 49 5 11 10
50 10 88 0 75 -19 119 -65 149 -14 9 -25 25 -25 35 0 12 -7 19 -20 19 -13 0
-20 7 -20 18 0 15 -15 22 -80 36 -74 16 -80 19 -80 42 0 21 11 30 80 61 l80
36 -6 178 -7 177 29 4 c28 3 30 6 61 133 18 72 32 133 33 138 0 4 -31 7 -69 7
-50 0 -72 -4 -81 -16 -25 -29 -146 -92 -235 -123 -87 -29 -272 -71 -313 -71
-11 0 -33 -15 -48 -32 l-27 -33 71 -3 c40 -2 72 -5 72 -7 0 -2 -4 -15 -9 -28
-8 -21 -18 -25 -68 -31 -32 -4 -84 -17 -116 -31 l-59 -23 -154 89 c-86 49
-194 114 -242 143 -48 30 -105 63 -127 74 -93 46 -266 79 -467 88 l-138 7 0
37 c0 34 3 38 33 46 l32 8 -32 3 c-26 3 -33 10 -38 34 -9 40 -42 40 -56 -1z
m316 -161 c95 -13 254 -52 293 -73 25 -14 21 -15 -63 -10 -49 3 -128 15 -175
25 -47 11 -139 27 -205 35 -66 8 -131 18 -145 21 l-25 7 25 7 c31 8 188 2 295
-12z m-726 -214 c14 -8 64 -21 111 -30 94 -18 150 -39 150 -55 0 -7 -6 -8 -19
-1 -33 18 -204 52 -245 49 -37 -3 -44 -8 -73 -53 -18 -27 -33 -55 -33 -62 0
-19 70 -25 160 -14 47 6 98 11 115 10 25 -1 19 -5 -30 -21 -42 -14 -88 -20
-152 -21 -86 0 -93 -2 -93 -20 0 -17 -5 -19 -37 -14 -21 3 -79 11 -130 18
l-92 13 -3 40 c-3 40 -4 41 -38 41 -31 0 -35 -3 -40 -30 -5 -29 -7 -30 -68
-33 -76 -4 -80 9 -19 63 82 73 162 118 242 135 58 13 262 3 294 -15z m-1428
-291 c58 -43 85 -84 100 -154 14 -66 0 -137 -40 -195 -66 -98 -207 -134 -316
-81 -173 85 -195 306 -43 429 80 64 213 65 299 1z m3315 45 c94 -24 184 -143
184 -244 0 -86 -65 -187 -150 -231 -52 -27 -162 -25 -218 4 -141 75 -184 242
-95 374 58 86 168 125 279 97z m-1071 -138 c51 -4 1 -8 -180 -14 -137 -4 -290
-12 -340 -17 -49 -5 -166 -12 -260 -16 -142 -5 -176 -4 -205 9 -34 15 -32 15
85 17 66 1 212 8 325 15 224 13 465 16 575 6z"/>
<path d="M1756 1825 c-42 -15 -100 -65 -122 -106 -42 -81 -25 -185 41 -252 72
-72 161 -85 259 -38 53 26 91 78 107 149 37 161 -127 304 -285 247z"/>
<path d="M5125 1819 c-56 -30 -74 -47 -101 -101 -100 -198 136 -397 321 -270
58 40 98 121 92 189 -11 152 -181 251 -312 182z"/>
</g>
</svg>
